<?xml version="1.0" encoding="UTF-8" standalone="no"?>
<!-- Created with Inkscape (http://www.inkscape.org/) -->

<svg
   xmlns:dc="http://purl.org/dc/elements/1.1/"
   xmlns:cc="http://creativecommons.org/ns#"
   xmlns:rdf="http://www.w3.org/1999/02/22-rdf-syntax-ns#"
   xmlns:svg="http://www.w3.org/2000/svg"
   xmlns="http://www.w3.org/2000/svg"
   xmlns:sodipodi="http://sodipodi.sourceforge.net/DTD/sodipodi-0.dtd"
   xmlns:inkscape="http://www.inkscape.org/namespaces/inkscape"
   width="161.925mm"
   height="161.925mm"
   viewBox="0 0 161.925 161.925"
   version="1.1"
   id="svg8"
   inkscape:version="0.92.4 (33fec40, 2019-01-16)"
   sodipodi:docname="menu-white.svg">
  <defs
     id="defs2" />
  <sodipodi:namedview
     id="base"
     pagecolor="#ffffff"
     bordercolor="#666666"
     borderopacity="1.0"
     inkscape:pageopacity="0.0"
     inkscape:pageshadow="2"
     inkscape:zoom="0.49497475"
     inkscape:cx="169.76444"
     inkscape:cy="599.31293"
     inkscape:document-units="mm"
     inkscape:current-layer="layer1"
     showgrid="false"
     inkscape:window-width="1920"
     inkscape:window-height="1015"
     inkscape:window-x="0"
     inkscape:window-y="0"
     inkscape:window-maximized="1" />
  <metadata
     id="metadata5">
    <rdf:RDF>
      <cc:Work
         rdf:about="">
        <dc:format>image/svg+xml</dc:format>
        <dc:type
           rdf:resource="http://purl.org/dc/dcmitype/StillImage" />
        <dc:title></dc:title>
      </cc:Work>
    </rdf:RDF>
  </metadata>
  <g
     inkscape:label="Layer 1"
     inkscape:groupmode="layer"
     id="layer1"
     transform="translate(0,-135.075)">
    <g
       id="g878"
       transform="matrix(0.26458333,0,0,0.26458333,0.7405993,135.32369)"
       style="fill:#ffffff">
      <g
         id="g820"
         style="fill:#ffffff">
	<g
   id="_x35__21_"
   style="fill:#ffffff">
		<g
   id="g817"
   style="fill:#ffffff">
			<path
   id="path815"
   d="M 535.5,0 H 76.5 C 34.521,0 0,37.657 0,79.656 V 535.959 C 0,577.957 34.023,612 76.003,612 H 532 c 41.979,0 80,-34.502 80,-76.5 V 76.5 C 612,34.501 577.479,0 535.5,0 Z m 38.25,535.5 c 0,20.999 -20.77,38.479 -41.75,38.479 H 76.003 c -20.98,0 -38.001,-17.021 -38.001,-38.021 V 79.656 c 0,-21 17.519,-41.406 38.499,-41.406 h 459 c 20.98,0 38.25,17.251 38.25,38.25 v 459 z M 459,382.5 H 153 c -10.557,0 -19.125,8.568 -19.125,19.125 0,10.557 8.568,19.125 19.125,19.125 h 306 c 10.557,0 19.125,-8.568 19.125,-19.125 0,-10.557 -8.568,-19.125 -19.125,-19.125 z m 0,-114.75 H 153 c -10.557,0 -19.125,8.568 -19.125,19.125 0,10.557 8.568,19.125 19.125,19.125 h 306 c 10.557,0 19.125,-8.568 19.125,-19.125 0,-10.557 -8.568,-19.125 -19.125,-19.125 z M 459,153 H 153 c -10.557,0 -19.125,8.568 -19.125,19.125 0,10.557 8.568,19.125 19.125,19.125 h 306 c 10.557,0 19.125,-8.568 19.125,-19.125 C 478.125,161.568 469.557,153 459,153 Z"
   inkscape:connector-curvature="0"
   style="fill:#ffffff" />

		</g>

	</g>

</g>
      <g
         id="g822"
         style="fill:#ffffff">
</g>
      <g
         id="g824"
         style="fill:#ffffff">
</g>
      <g
         id="g826"
         style="fill:#ffffff">
</g>
      <g
         id="g828"
         style="fill:#ffffff">
</g>
      <g
         id="g830"
         style="fill:#ffffff">
</g>
      <g
         id="g832"
         style="fill:#ffffff">
</g>
      <g
         id="g834"
         style="fill:#ffffff">
</g>
      <g
         id="g836"
         style="fill:#ffffff">
</g>
      <g
         id="g838"
         style="fill:#ffffff">
</g>
      <g
         id="g840"
         style="fill:#ffffff">
</g>
      <g
         id="g842"
         style="fill:#ffffff">
</g>
      <g
         id="g844"
         style="fill:#ffffff">
</g>
      <g
         id="g846"
         style="fill:#ffffff">
</g>
      <g
         id="g848"
         style="fill:#ffffff">
</g>
      <g
         id="g850"
         style="fill:#ffffff">
</g>
    </g>
  </g>
</svg>
